# xmcd CD database file
#
# Track frame offsets:
#	150
#	23500
#	40637
#	62087
#	80312
#	101637
#	128075
#	148087
#	170850
#
# Disc length: 2525 seconds
#
# Revision: 0
# Processed by: cddbd v1.5.2PL0 Copyright (c) Steve Scherf et al.
# Submitted via: CDex 1.70beta3
#
DISCID=7109db09
DTITLE=Jimmy Knepper - A Swinging Introduction To Jimmy Knepper
DYEAR=1957
DGENRE=Jazz
TTITLE0=Love Letters
TTITLE1=Ogling Ogre
TTITLE2=You Stepped Out Of A Dream
TTITLE3=How High The Moon
TTITLE4=Gee Baby Ain't I Good To You
TTITLE5=Idol Of The Flies
TTITLE6=Close As Pages In A Book
TTITLE7=Avid Admirer
TTITLE8=Irresistible You
EXTD=YEAR: 1957
EXTT0=
EXTT1=
EXTT2=
EXTT3=
EXTT4=
EXTT5=
EXTT6=
EXTT7=
EXTT8=
PLAYORDER=
